<?xml version="1.0" standalone="no"?>
<!DOCTYPE svg PUBLIC "-//W3C//DTD SVG 20010904//EN"
 "http://www.w3.org/TR/2001/REC-SVG-20010904/DTD/svg10.dtd">
<svg version="1.0" xmlns="http://www.w3.org/2000/svg"
 width="170.000000pt" height="170.000000pt" viewBox="0 0 170.000000 170.000000"
 preserveAspectRatio="xMidYMid meet">
<metadata>
Created by potrace 1.14, written by Peter Selinger 2001-2017
</metadata>
<g transform="translate(0.000000,170.000000) scale(0.100000,-0.100000)"
fill="#000000" stroke="none">
<path d="M866 1575 c-14 -13 -26 -30 -27 -37 -3 -31 3 -74 11 -82 9 -9 4 -30
-18 -63 -13 -21 -16 -21 -40 -9 -15 8 -47 33 -72 55 -25 22 -48 41 -52 41 -5
0 -8 14 -8 30 0 64 -86 103 -144 65 -30 -20 -50 -67 -42 -98 3 -13 16 -35 30
-48 29 -30 44 -107 37 -199 -2 -20 -70 -11 -91 12 -11 12 -20 25 -20 29 0 8
-50 26 -67 23 -7 -1 -20 -2 -28 -3 -32 -2 -65 -48 -65 -89 0 -41 5 -48 73
-104 34 -28 52 -108 24 -108 -9 0 -22 6 -30 14 -20 20 -57 23 -95 7 -37 -15
-52 -44 -52 -96 0 -42 49 -88 89 -83 14 1 33 -2 41 -7 8 -6 24 -15 35 -21 47
-25 70 -39 76 -47 12 -16 164 -107 179 -107 27 0 40 16 60 74 35 99 121 211
190 246 65 33 216 43 300 20 47 -13 87 -12 96 2 4 6 7 89 6 184 -1 158 1 173
19 190 52 47 -1 154 -76 154 -53 0 -99 -47 -93 -95 6 -52 -19 -55 -60 -8 -26
30 -32 44 -28 66 18 91 -90 155 -158 92z m84 -75 c-20 -36 24 -132 74 -165 48
-32 126 -22 147 17 6 11 13 17 17 14 8 -9 6 -281 -2 -295 -5 -7 -19 -8 -39 -4
-38 9 -167 10 -217 2 -37 -7 -139 -59 -183 -95 -30 -24 -127 -162 -127 -180 0
-6 -11 -19 -24 -27 -23 -15 -27 -14 -97 31 -41 25 -76 49 -79 52 -3 4 -25 18
-50 33 -39 23 -40 28 -5 27 16 -1 66 33 76 52 34 63 -14 203 -73 215 -22 4
-28 11 -26 27 4 30 30 26 46 -7 15 -32 44 -45 106 -51 91 -7 121 25 119 129
-3 110 -20 178 -50 200 -10 8 -14 19 -10 29 10 26 28 15 42 -27 16 -46 99
-126 169 -161 46 -23 57 -25 80 -15 30 14 58 55 79 115 12 37 12 45 -1 67 -21
33 -10 62 18 47 16 -9 18 -15 10 -30z m271 -83 c-11 -28 -35 -29 -39 0 -2 14
3 23 15 25 27 6 33 0 24 -25z m-911 -486 c7 -13 7 -22 0 -26 -15 -9 -50 4 -50
19 0 31 34 35 50 7z"/>
<path d="M972 841 c-66 -23 -109 -53 -151 -107 -46 -60 -63 -114 -69 -215 -7
-132 27 -228 109 -306 108 -103 303 -103 407 -2 25 25 30 35 22 49 -17 31 -48
34 -83 8 -104 -78 -238 -61 -314 40 -41 54 -56 108 -55 198 2 118 60 217 145
248 80 29 129 24 202 -20 49 -29 63 -33 82 -25 38 18 30 55 -19 89 -82 56
-188 73 -276 43z"/>
</g>
</svg>
